solid OpenSCAD_Model
  facet normal 1 0 0
    outer loop
      vertex 12 0 14
      vertex 12 -16.8 0
      vertex 12 0 -16
    endloop
  endfacet
  facet normal 1 -0 0
    outer loop
      vertex 12 -37.8 14
      vertex 12 -16.8 0
      vertex 12 0 14
    endloop
  endfacet
  facet normal 1 0 0
    outer loop
      vertex 12 -37.8 -16
      vertex 12 -34.8 0
      vertex 12 -37.8 14
    endloop
  endfacet
  facet normal 1 0 0
    outer loop
      vertex 12 -16.8 0
      vertex 12 -37.8 14
      vertex 12 -34.8 0
    endloop
  endfacet
  facet normal 1 -0 0
    outer loop
      vertex 12 -16.8 -13.8
      vertex 12 0 -16
      vertex 12 -16.8 0
    endloop
  endfacet
  facet normal 1 0 0
    outer loop
      vertex 12 -37.8 -16
      vertex 12 -16.8 -13.8
      vertex 12 -34.8 -13.8
    endloop
  endfacet
  facet normal 1 0 0
    outer loop
      vertex 12 -16.8 -13.8
      vertex 12 -37.8 -16
      vertex 12 0 -16
    endloop
  endfacet
  facet normal 1 0 0
    outer loop
      vertex 12 -34.8 0
      vertex 12 -37.8 -16
      vertex 12 -34.8 -13.8
    endloop
  endfacet
  facet normal -0 0 1
    outer loop
      vertex -10.5 0 0
      vertex 10.5 -2.8 0
      vertex 10.5 0 0
    endloop
  endfacet
  facet normal 0 0 1
    outer loop
      vertex 10.5 -2.8 0
      vertex -10.5 0 0
      vertex -10.5 -2.8 0
    endloop
  endfacet
  facet normal -0 0 1
    outer loop
      vertex -10.5 -2.8 -2.3
      vertex 10.5 -5.6 -2.3
      vertex 10.5 -2.8 -2.3
    endloop
  endfacet
  facet normal 0 0 1
    outer loop
      vertex 10.5 -5.6 -2.3
      vertex -10.5 -2.8 -2.3
      vertex -10.5 -5.6 -2.3
    endloop
  endfacet
  facet normal -1 0 0
    outer loop
      vertex -12 -16.8 0
      vertex -12 0 -16
      vertex -12 -16.8 -13.8
    endloop
  endfacet
  facet normal -1 0 0
    outer loop
      vertex -12 -37.8 -16
      vertex -12 -16.8 -13.8
      vertex -12 0 -16
    endloop
  endfacet
  facet normal -1 -0 0
    outer loop
      vertex -12 -34.8 -13.8
      vertex -12 -37.8 -16
      vertex -12 -34.8 0
    endloop
  endfacet
  facet normal -1 -0 0
    outer loop
      vertex -12 -16.8 -13.8
      vertex -12 -37.8 -16
      vertex -12 -34.8 -13.8
    endloop
  endfacet
  facet normal -1 0 0
    outer loop
      vertex -12 0 -16
      vertex -12 -16.8 0
      vertex -12 0 14
    endloop
  endfacet
  facet normal -1 0 0
    outer loop
      vertex -12 -37.8 14
      vertex -12 -16.8 0
      vertex -12 -34.8 0
    endloop
  endfacet
  facet normal -1 0 0
    outer loop
      vertex -12 -16.8 0
      vertex -12 -37.8 14
      vertex -12 0 14
    endloop
  endfacet
  facet normal -1 0 0
    outer loop
      vertex -12 -37.8 14
      vertex -12 -34.8 0
      vertex -12 -37.8 -16
    endloop
  endfacet
  facet normal 0 1 0
    outer loop
      vertex 12 0 14
      vertex 10.5 0 0
      vertex 10.5 0 14
    endloop
  endfacet
  facet normal 0 1 0
    outer loop
      vertex 10.5 0 0
      vertex 12 0 -16
      vertex -10.5 0 0
    endloop
  endfacet
  facet normal 0 1 -0
    outer loop
      vertex 12 0 -16
      vertex 10.5 0 0
      vertex 12 0 14
    endloop
  endfacet
  facet normal 0 1 -0
    outer loop
      vertex -10.5 0 0
      vertex -12 0 14
      vertex -10.5 0 14
    endloop
  endfacet
  facet normal 0 1 0
    outer loop
      vertex -10.5 0 0
      vertex -12 0 -16
      vertex -12 0 14
    endloop
  endfacet
  facet normal 0 1 0
    outer loop
      vertex -12 0 -16
      vertex -10.5 0 0
      vertex 12 0 -16
    endloop
  endfacet
  facet normal 0 -1 0
    outer loop
      vertex -10.5 -2.8 -2.3
      vertex 10.5 -2.8 0
      vertex -10.5 -2.8 0
    endloop
  endfacet
  facet normal 0 -1 -0
    outer loop
      vertex 10.5 -2.8 0
      vertex -10.5 -2.8 -2.3
      vertex 10.5 -2.8 -2.3
    endloop
  endfacet
  facet normal -0 0 1
    outer loop
      vertex -10.5 -5.6 -4.6
      vertex 10.5 -8.4 -4.6
      vertex 10.5 -5.6 -4.6
    endloop
  endfacet
  facet normal 0 0 1
    outer loop
      vertex 10.5 -8.4 -4.6
      vertex -10.5 -5.6 -4.6
      vertex -10.5 -8.4 -4.6
    endloop
  endfacet
  facet normal 0 -1 0
    outer loop
      vertex -10.5 -5.6 -4.6
      vertex 10.5 -5.6 -2.3
      vertex -10.5 -5.6 -2.3
    endloop
  endfacet
  facet normal 0 -1 -0
    outer loop
      vertex 10.5 -5.6 -2.3
      vertex -10.5 -5.6 -4.6
      vertex 10.5 -5.6 -4.6
    endloop
  endfacet
  facet normal -0 0 1
    outer loop
      vertex -10.5 -8.4 -6.9
      vertex 10.5 -11.2 -6.9
      vertex 10.5 -8.4 -6.9
    endloop
  endfacet
  facet normal 0 0 1
    outer loop
      vertex 10.5 -11.2 -6.9
      vertex -10.5 -8.4 -6.9
      vertex -10.5 -11.2 -6.9
    endloop
  endfacet
  facet normal 0 -1 0
    outer loop
      vertex -10.5 -8.4 -6.9
      vertex 10.5 -8.4 -4.6
      vertex -10.5 -8.4 -4.6
    endloop
  endfacet
  facet normal 0 -1 -0
    outer loop
      vertex 10.5 -8.4 -4.6
      vertex -10.5 -8.4 -6.9
      vertex 10.5 -8.4 -6.9
    endloop
  endfacet
  facet normal -0 0 1
    outer loop
      vertex -10.5 -11.2 -9.2
      vertex 10.5 -14 -9.2
      vertex 10.5 -11.2 -9.2
    endloop
  endfacet
  facet normal 0 0 1
    outer loop
      vertex 10.5 -14 -9.2
      vertex -10.5 -11.2 -9.2
      vertex -10.5 -14 -9.2
    endloop
  endfacet
  facet normal 0 -1 0
    outer loop
      vertex -10.5 -11.2 -9.2
      vertex 10.5 -11.2 -6.9
      vertex -10.5 -11.2 -6.9
    endloop
  endfacet
  facet normal 0 -1 -0
    outer loop
      vertex 10.5 -11.2 -6.9
      vertex -10.5 -11.2 -9.2
      vertex 10.5 -11.2 -9.2
    endloop
  endfacet
  facet normal -0 0 1
    outer loop
      vertex -10.5 -14 -11.5
      vertex 10.5 -16.8 -11.5
      vertex 10.5 -14 -11.5
    endloop
  endfacet
  facet normal 0 0 1
    outer loop
      vertex 10.5 -16.8 -11.5
      vertex -10.5 -14 -11.5
      vertex -10.5 -16.8 -11.5
    endloop
  endfacet
  facet normal 0 -1 0
    outer loop
      vertex -10.5 -14 -11.5
      vertex 10.5 -14 -9.2
      vertex -10.5 -14 -9.2
    endloop
  endfacet
  facet normal 0 -1 -0
    outer loop
      vertex 10.5 -14 -9.2
      vertex -10.5 -14 -11.5
      vertex 10.5 -14 -11.5
    endloop
  endfacet
  facet normal -0 0 1
    outer loop
      vertex -10.5 -34.8 -13.8
      vertex 10.5 -36.3 -13.8
      vertex 10.5 -34.8 -13.8
    endloop
  endfacet
  facet normal 0 0 1
    outer loop
      vertex 10.5 -36.3 -13.8
      vertex -10.5 -34.8 -13.8
      vertex -10.5 -36.3 -13.8
    endloop
  endfacet
  facet normal 0 0 1
    outer loop
      vertex 12 -16.8 -13.8
      vertex 10.5 -34.8 -13.8
      vertex 12 -34.8 -13.8
    endloop
  endfacet
  facet normal 0 0 1
    outer loop
      vertex 12 -16.8 -13.8
      vertex -10.5 -34.8 -13.8
      vertex 10.5 -34.8 -13.8
    endloop
  endfacet
  facet normal -0 0 1
    outer loop
      vertex -12 -16.8 -13.8
      vertex -10.5 -34.8 -13.8
      vertex 12 -16.8 -13.8
    endloop
  endfacet
  facet normal 0 0 1
    outer loop
      vertex -10.5 -34.8 -13.8
      vertex -12 -16.8 -13.8
      vertex -12 -34.8 -13.8
    endloop
  endfacet
  facet normal 0 -1 0
    outer loop
      vertex -12 -16.8 0
      vertex -10.5 -16.8 -11.5
      vertex -10.5 -16.8 0
    endloop
  endfacet
  facet normal 0 -1 -0
    outer loop
      vertex -10.5 -16.8 -11.5
      vertex -12 -16.8 -13.8
      vertex 10.5 -16.8 -11.5
    endloop
  endfacet
  facet normal 0 -1 0
    outer loop
      vertex -12 -16.8 -13.8
      vertex -10.5 -16.8 -11.5
      vertex -12 -16.8 0
    endloop
  endfacet
  facet normal 0 -1 0
    outer loop
      vertex 10.5 -16.8 -11.5
      vertex 12 -16.8 0
      vertex 10.5 -16.8 0
    endloop
  endfacet
  facet normal 0 -1 0
    outer loop
      vertex 10.5 -16.8 -11.5
      vertex 12 -16.8 -13.8
      vertex 12 -16.8 0
    endloop
  endfacet
  facet normal 0 -1 0
    outer loop
      vertex 12 -16.8 -13.8
      vertex 10.5 -16.8 -11.5
      vertex -12 -16.8 -13.8
    endloop
  endfacet
  facet normal 1 0 0
    outer loop
      vertex -10.5 0 14
      vertex -10.5 -2.8 0
      vertex -10.5 0 0
    endloop
  endfacet
  facet normal 1 0 0
    outer loop
      vertex -10.5 -2.8 0
      vertex -10.5 -5.6 -2.3
      vertex -10.5 -2.8 -2.3
    endloop
  endfacet
  facet normal 1 0 0
    outer loop
      vertex -10.5 -16.8 0
      vertex -10.5 -2.8 0
      vertex -10.5 0 14
    endloop
  endfacet
  facet normal 1 0 0
    outer loop
      vertex -10.5 -5.6 -2.3
      vertex -10.5 -8.4 -4.6
      vertex -10.5 -5.6 -4.6
    endloop
  endfacet
  facet normal 1 0 0
    outer loop
      vertex -10.5 -2.8 0
      vertex -10.5 -16.8 0
      vertex -10.5 -5.6 -2.3
    endloop
  endfacet
  facet normal 1 0 0
    outer loop
      vertex -10.5 -8.4 -4.6
      vertex -10.5 -11.2 -6.9
      vertex -10.5 -8.4 -6.9
    endloop
  endfacet
  facet normal 1 0 0
    outer loop
      vertex -10.5 -5.6 -2.3
      vertex -10.5 -16.8 0
      vertex -10.5 -8.4 -4.6
    endloop
  endfacet
  facet normal 1 0 0
    outer loop
      vertex -10.5 -11.2 -6.9
      vertex -10.5 -14 -9.2
      vertex -10.5 -11.2 -9.2
    endloop
  endfacet
  facet normal 1 0 0
    outer loop
      vertex -10.5 -8.4 -4.6
      vertex -10.5 -16.8 0
      vertex -10.5 -11.2 -6.9
    endloop
  endfacet
  facet normal 1 0 0
    outer loop
      vertex -10.5 -16.8 -11.5
      vertex -10.5 -14 -9.2
      vertex -10.5 -16.8 0
    endloop
  endfacet
  facet normal 1 0 0
    outer loop
      vertex -10.5 -11.2 -6.9
      vertex -10.5 -16.8 0
      vertex -10.5 -14 -9.2
    endloop
  endfacet
  facet normal 1 -0 0
    outer loop
      vertex -10.5 -36.3 14
      vertex -10.5 -16.8 0
      vertex -10.5 0 14
    endloop
  endfacet
  facet normal 1 0 0
    outer loop
      vertex -10.5 -16.8 0
      vertex -10.5 -36.3 14
      vertex -10.5 -34.8 0
    endloop
  endfacet
  facet normal 1 0 0
    outer loop
      vertex -10.5 -36.3 -13.8
      vertex -10.5 -34.8 0
      vertex -10.5 -36.3 14
    endloop
  endfacet
  facet normal 1 0 0
    outer loop
      vertex -10.5 -34.8 0
      vertex -10.5 -36.3 -13.8
      vertex -10.5 -34.8 -13.8
    endloop
  endfacet
  facet normal 1 0 0
    outer loop
      vertex -10.5 -14 -9.2
      vertex -10.5 -16.8 -11.5
      vertex -10.5 -14 -11.5
    endloop
  endfacet
  facet normal 0 1 -0
    outer loop
      vertex 10.5 -36.3 -13.8
      vertex -10.5 -36.3 14
      vertex 10.5 -36.3 14
    endloop
  endfacet
  facet normal 0 1 0
    outer loop
      vertex -10.5 -36.3 14
      vertex 10.5 -36.3 -13.8
      vertex -10.5 -36.3 -13.8
    endloop
  endfacet
  facet normal 0 0 1
    outer loop
      vertex -10.5 0 14
      vertex -12 0 14
      vertex -10.5 -36.3 14
    endloop
  endfacet
  facet normal 0 0 1
    outer loop
      vertex 10.5 -36.3 14
      vertex 12 0 14
      vertex 10.5 0 14
    endloop
  endfacet
  facet normal 0 0 1
    outer loop
      vertex 12 0 14
      vertex 10.5 -36.3 14
      vertex 12 -37.8 14
    endloop
  endfacet
  facet normal -0 0 1
    outer loop
      vertex -10.5 -36.3 14
      vertex 12 -37.8 14
      vertex 10.5 -36.3 14
    endloop
  endfacet
  facet normal 0 0 1
    outer loop
      vertex -10.5 -36.3 14
      vertex -12 -37.8 14
      vertex 12 -37.8 14
    endloop
  endfacet
  facet normal 0 0 1
    outer loop
      vertex -12 -37.8 14
      vertex -10.5 -36.3 14
      vertex -12 0 14
    endloop
  endfacet
  facet normal 0 0 -1
    outer loop
      vertex -12 -37.8 -16
      vertex 12 0 -16
      vertex 12 -37.8 -16
    endloop
  endfacet
  facet normal -0 0 -1
    outer loop
      vertex 12 0 -16
      vertex -12 -37.8 -16
      vertex -12 0 -16
    endloop
  endfacet
  facet normal -1 0 0
    outer loop
      vertex 10.5 -34.8 -13.8
      vertex 10.5 -36.3 -13.8
      vertex 10.5 -34.8 0
    endloop
  endfacet
  facet normal -1 0 0
    outer loop
      vertex 10.5 -14 -11.5
      vertex 10.5 -16.8 -11.5
      vertex 10.5 -14 -9.2
    endloop
  endfacet
  facet normal -1 0 0
    outer loop
      vertex 10.5 -11.2 -9.2
      vertex 10.5 -14 -9.2
      vertex 10.5 -11.2 -6.9
    endloop
  endfacet
  facet normal -1 0 0
    outer loop
      vertex 10.5 -8.4 -6.9
      vertex 10.5 -11.2 -6.9
      vertex 10.5 -8.4 -4.6
    endloop
  endfacet
  facet normal -1 0 0
    outer loop
      vertex 10.5 -5.6 -4.6
      vertex 10.5 -8.4 -4.6
      vertex 10.5 -5.6 -2.3
    endloop
  endfacet
  facet normal -1 0 0
    outer loop
      vertex 10.5 -2.8 -2.3
      vertex 10.5 -5.6 -2.3
      vertex 10.5 -2.8 0
    endloop
  endfacet
  facet normal -1 0 0
    outer loop
      vertex 10.5 -2.8 0
      vertex 10.5 0 14
      vertex 10.5 0 0
    endloop
  endfacet
  facet normal -1 0 0
    outer loop
      vertex 10.5 -16.8 0
      vertex 10.5 -2.8 0
      vertex 10.5 -5.6 -2.3
    endloop
  endfacet
  facet normal -1 0 0
    outer loop
      vertex 10.5 -16.8 0
      vertex 10.5 -5.6 -2.3
      vertex 10.5 -8.4 -4.6
    endloop
  endfacet
  facet normal -1 0 0
    outer loop
      vertex 10.5 -16.8 0
      vertex 10.5 -8.4 -4.6
      vertex 10.5 -11.2 -6.9
    endloop
  endfacet
  facet normal -1 0 0
    outer loop
      vertex 10.5 -16.8 0
      vertex 10.5 -11.2 -6.9
      vertex 10.5 -14 -9.2
    endloop
  endfacet
  facet normal -1 0 0
    outer loop
      vertex 10.5 -16.8 0
      vertex 10.5 -14 -9.2
      vertex 10.5 -16.8 -11.5
    endloop
  endfacet
  facet normal -1 0 0
    outer loop
      vertex 10.5 -2.8 0
      vertex 10.5 -16.8 0
      vertex 10.5 0 14
    endloop
  endfacet
  facet normal -1 0 0
    outer loop
      vertex 10.5 -36.3 14
      vertex 10.5 -16.8 0
      vertex 10.5 -34.8 0
    endloop
  endfacet
  facet normal -1 0 0
    outer loop
      vertex 10.5 -16.8 0
      vertex 10.5 -36.3 14
      vertex 10.5 0 14
    endloop
  endfacet
  facet normal -1 0 0
    outer loop
      vertex 10.5 -36.3 14
      vertex 10.5 -34.8 0
      vertex 10.5 -36.3 -13.8
    endloop
  endfacet
  facet normal 0 -1 0
    outer loop
      vertex -12 -37.8 -16
      vertex 12 -37.8 14
      vertex -12 -37.8 14
    endloop
  endfacet
  facet normal 0 -1 -0
    outer loop
      vertex 12 -37.8 14
      vertex -12 -37.8 -16
      vertex 12 -37.8 -16
    endloop
  endfacet
  facet normal 0 0 -1
    outer loop
      vertex -12 -34.8 0
      vertex -10.5 -16.8 0
      vertex -10.5 -34.8 0
    endloop
  endfacet
  facet normal -0 0 -1
    outer loop
      vertex -10.5 -16.8 0
      vertex -12 -34.8 0
      vertex -12 -16.8 0
    endloop
  endfacet
  facet normal 0 0 -1
    outer loop
      vertex 10.5 -34.8 0
      vertex 12 -16.8 0
      vertex 12 -34.8 0
    endloop
  endfacet
  facet normal -0 0 -1
    outer loop
      vertex 12 -16.8 0
      vertex 10.5 -34.8 0
      vertex 10.5 -16.8 0
    endloop
  endfacet
  facet normal 0 1 -0
    outer loop
      vertex -10.5 -34.8 -13.8
      vertex -12 -34.8 0
      vertex -10.5 -34.8 0
    endloop
  endfacet
  facet normal 0 1 0
    outer loop
      vertex -12 -34.8 0
      vertex -10.5 -34.8 -13.8
      vertex -12 -34.8 -13.8
    endloop
  endfacet
  facet normal 0 1 -0
    outer loop
      vertex 12 -34.8 -13.8
      vertex 10.5 -34.8 0
      vertex 12 -34.8 0
    endloop
  endfacet
  facet normal 0 1 0
    outer loop
      vertex 10.5 -34.8 0
      vertex 12 -34.8 -13.8
      vertex 10.5 -34.8 -13.8
    endloop
  endfacet
endsolid OpenSCAD_Model
